<?xml version="1.0" encoding="UTF-8" standalone="no"?>
<!DOCTYPE svg PUBLIC "-//W3C//DTD SVG 1.1//EN" "http://www.w3.org/Graphics/SVG/1.1/DTD/svg11.dtd">
<svg width="100%" height="100%" viewBox="0 0 24 24" version="1.1" xmlns="http://www.w3.org/2000/svg" xmlns:xlink="http://www.w3.org/1999/xlink" xml:space="preserve" xmlns:serif="http://www.serif.com/" style="fill-rule:evenodd;clip-rule:evenodd;stroke-linecap:round;stroke-linejoin:round;">
    <g id="icon" transform="matrix(0.750285,0,0,0.750285,12.0008,12.0006)">
        <g>
            <g transform="matrix(1,0,0,1,-156.11,-33.5)">
                <path d="M142.093,20.781L142.093,46.218" style="fill:none;fill-rule:nonzero;stroke:white;stroke-width:2px;"/>
            </g>
            <g transform="matrix(1,0,0,1,-156.11,-33.5)">
                <path d="M162.812,23.094L148.188,23.094C147.514,23.094 146.969,23.611 146.969,24.25L146.969,30.031C146.969,30.67 147.514,31.188 148.188,31.188L162.812,31.188C163.486,31.188 164.031,30.67 164.031,30.031L164.031,24.25C164.031,23.611 163.486,23.094 162.812,23.094Z" style="fill:none;fill-rule:nonzero;stroke:white;stroke-width:2px;"/>
            </g>
            <g transform="matrix(1,0,0,1,-156.11,-33.5)">
                <path d="M168.906,35.813L148.188,35.813C147.514,35.813 146.969,36.33 146.969,36.969L146.969,42.75C146.969,43.389 147.514,43.906 148.188,43.906L168.906,43.906C169.579,43.906 170.125,43.389 170.125,42.75L170.125,36.969C170.125,36.33 169.579,35.813 168.906,35.813Z" style="fill:none;fill-rule:nonzero;stroke:white;stroke-width:2px;"/>
            </g>
        </g>
    </g>
</svg>
